<svg width="112" height="32" viewBox="0 0 112 32" fill="none" xmlns="http://www.w3.org/2000/svg">
<path d="M106 0H31V32H106C108.761 32 111 29.7614 111 27V5C111 2.23858 108.761 0 106 0Z" fill="#0F1418"/>
<path d="M51.5958 21H46.7208V19.71L48.0258 19.11V12.18L46.7208 11.58V10.29H51.5958V11.58L50.2908 12.18V19.11L51.5958 19.71V21ZM56.8708 19.365C57.1208 19.365 57.3608 19.34 57.5908 19.29C57.8208 19.24 58.0508 19.18 58.2808 19.11V20.775C58.0408 20.875 57.7408 20.96 57.3808 21.03C57.0308 21.11 56.6458 21.15 56.2258 21.15C55.7358 21.15 55.2958 21.07 54.9058 20.91C54.5258 20.75 54.2208 20.475 53.9908 20.085C53.7708 19.685 53.6608 19.135 53.6608 18.435V14.49H52.5958V13.545L53.8258 12.795L54.4708 11.07H55.8958V12.81H58.1908V14.49H55.8958V18.435C55.8958 18.745 55.9858 18.98 56.1658 19.14C56.3458 19.29 56.5808 19.365 56.8708 19.365ZM63.4647 12.645C64.5647 12.645 65.4047 12.885 65.9847 13.365C66.5747 13.835 66.8697 14.56 66.8697 15.54V21H65.3097L64.8747 19.89H64.8147C64.5847 20.18 64.3447 20.42 64.0947 20.61C63.8547 20.8 63.5747 20.935 63.2547 21.015C62.9447 21.105 62.5597 21.15 62.0997 21.15C61.6197 21.15 61.1847 21.06 60.7947 20.88C60.4147 20.69 60.1147 20.405 59.8947 20.025C59.6747 19.635 59.5647 19.145 59.5647 18.555C59.5647 17.685 59.8697 17.045 60.4797 16.635C61.0897 16.215 62.0047 15.985 63.2247 15.945L64.6497 15.9V15.54C64.6497 15.11 64.5347 14.795 64.3047 14.595C64.0847 14.395 63.7747 14.295 63.3747 14.295C62.9747 14.295 62.5847 14.355 62.2047 14.475C61.8247 14.585 61.4447 14.725 61.0647 14.895L60.3297 13.38C60.7697 13.15 61.2547 12.97 61.7847 12.84C62.3247 12.71 62.8847 12.645 63.4647 12.645ZM63.7797 17.235C63.0597 17.255 62.5597 17.385 62.2797 17.625C61.9997 17.865 61.8597 18.18 61.8597 18.57C61.8597 18.91 61.9597 19.155 62.1597 19.305C62.3597 19.445 62.6197 19.515 62.9397 19.515C63.4197 19.515 63.8247 19.375 64.1547 19.095C64.4847 18.805 64.6497 18.4 64.6497 17.88V17.205L63.7797 17.235ZM71.5725 21H69.3375V9.6H71.5725V21ZM76.3228 12.81V21H74.0878V12.81H76.3228ZM75.2128 9.6C75.5428 9.6 75.8278 9.68 76.0678 9.84C76.3078 9.99 76.4278 10.275 76.4278 10.695C76.4278 11.105 76.3078 11.39 76.0678 11.55C75.8278 11.71 75.5428 11.79 75.2128 11.79C74.8728 11.79 74.5828 11.71 74.3428 11.55C74.1128 11.39 73.9978 11.105 73.9978 10.695C73.9978 10.275 74.1128 9.99 74.3428 9.84C74.5828 9.68 74.8728 9.6 75.2128 9.6ZM82.1981 12.645C83.2981 12.645 84.1381 12.885 84.7181 13.365C85.3081 13.835 85.6031 14.56 85.6031 15.54V21H84.0431L83.6081 19.89H83.5481C83.3181 20.18 83.0781 20.42 82.8281 20.61C82.5881 20.8 82.3081 20.935 81.9881 21.015C81.6781 21.105 81.2931 21.15 80.8331 21.15C80.3531 21.15 79.9181 21.06 79.5281 20.88C79.1481 20.69 78.8481 20.405 78.6281 20.025C78.4081 19.635 78.2981 19.145 78.2981 18.555C78.2981 17.685 78.6031 17.045 79.2131 16.635C79.8231 16.215 80.7381 15.985 81.9581 15.945L83.3831 15.9V15.54C83.3831 15.11 83.2681 14.795 83.0381 14.595C82.8181 14.395 82.5081 14.295 82.1081 14.295C81.7081 14.295 81.3181 14.355 80.9381 14.475C80.5581 14.585 80.1781 14.725 79.7981 14.895L79.0631 13.38C79.5031 13.15 79.9881 12.97 80.5181 12.84C81.0581 12.71 81.6181 12.645 82.1981 12.645ZM82.5131 17.235C81.7931 17.255 81.2931 17.385 81.0131 17.625C80.7331 17.865 80.5931 18.18 80.5931 18.57C80.5931 18.91 80.6931 19.155 80.8931 19.305C81.0931 19.445 81.3531 19.515 81.6731 19.515C82.1531 19.515 82.5581 19.375 82.8881 19.095C83.2181 18.805 83.3831 18.4 83.3831 17.88V17.205L82.5131 17.235ZM92.7208 12.66C93.6008 12.66 94.3058 12.9 94.8358 13.38C95.3658 13.85 95.6308 14.61 95.6308 15.66V21H93.3958V16.215C93.3958 15.625 93.2908 15.185 93.0808 14.895C92.8708 14.595 92.5358 14.445 92.0758 14.445C91.3958 14.445 90.9308 14.68 90.6808 15.15C90.4308 15.61 90.3058 16.275 90.3058 17.145V21H88.0708V12.81H89.7808L90.0808 13.86H90.2008C90.3808 13.58 90.6008 13.355 90.8608 13.185C91.1208 13.005 91.4108 12.875 91.7308 12.795C92.0508 12.705 92.3808 12.66 92.7208 12.66Z" fill="white"/>
<path d="M107 0H5C2.23858 0 0 2.23858 0 5V27C0 29.7614 2.23858 32 5 32H107C109.761 32 112 29.7614 112 27V5C112 2.23858 109.761 0 107 0Z" fill="url(#paint0_linear_20_2)"/>
<path d="M15.5 28C22.4036 28 28 22.4036 28 15.5C28 8.59644 22.4036 3 15.5 3C8.59644 3 3 8.59644 3 15.5C3 22.4036 8.59644 28 15.5 28Z" fill="white"/>
<path d="M28.0001 15.5C28.0001 10.1254 24.6079 5.54363 19.8479 3.77747V27.2225C24.6079 25.4563 28.0001 20.8745 28.0001 15.5Z" fill="#D80027"/>
<path d="M3 15.5C3 20.8745 6.39219 25.4563 11.1522 27.2225V3.77747C6.39219 5.54363 3 10.1254 3 15.5Z" fill="#6DA544"/>
<defs>
<linearGradient id="paint0_linear_20_2" x1="0" y1="0" x2="0" y2="32" gradientUnits="userSpaceOnUse">
<stop stop-color="#BBBBBB" stop-opacity="0.1"/>
<stop offset="1" stop-opacity="0.1"/>
</linearGradient>
</defs>
</svg>
